<svg xmlns="http://www.w3.org/2000/svg" width="32" height="32">
  <path fill="#4d5ae5" d="M31.974 4.524a.535.535 0 0 0-.427-.362h-.003l-1.911-.278-.855-1.731c-.179-.365-.776-.365-.956 0l-.855 1.731-1.91.278a.533.533 0 0 0-.296.91l1.383 1.348-.326 1.903a.533.533 0 0 0 .774.561l1.709-.899 1.709.899a.534.534 0 0 0 .773-.566v.003l-.326-1.903L31.84 5.07a.535.535 0 0 0 .134-.55l.001.004zm-2.463 1.327a.534.534 0 0 0-.153.472l.191 1.114-1-.526a.524.524 0 0 0-.499.001l.003-.001-1 .526.191-1.114a.533.533 0 0 0-.153-.472l-.81-.79 1.119-.162a.531.531 0 0 0 .401-.292l.5-1.013.501 1.013a.535.535 0 0 0 .402.292l1.119.162-.809.79zm-3.377 14.671h-1.067v1.067h1.067v-1.067zm0 2.133h-1.067v1.067h1.067v-1.067z"/>
  <path fill="#4d5ae5" d="M27.2 21.589h-1.067v1.067H27.2v-1.067zm-2.133 0H24v1.067h1.067v-1.067zm-2.667 4.8h-1.067v1.067H22.4v-1.067zm0 2.134h-1.067v1.067H22.4v-1.067zm1.067-1.067H22.4v1.067h1.067v-1.067zM21.334 27.456h-1.067v1.067h1.067v-1.067zM16 24.256h-1.066v1.067H16v-1.067zm0 2.133h-1.066v1.067H16v-1.067zm1.067-1.066H16v1.067h1.067v-1.067zm-2.133 0h-1.067v1.067h1.067v-1.067zM5.867 6.122H4.801v1.066h1.066V6.122zm0 2.133H4.801v1.067h1.066V8.256zm1.066-1.066H5.867v1.067h1.066V7.189zm-2.133 0H3.733v1.067H4.8V7.189z"/>
  <path fill="#2e2f42" d="M24.715 14.159a1.778 1.778 0 0 0-1.179-.704l-.009-.001a1.764 1.764 0 0 0-1.344.356l.004-.003-1.252.96-1.898 1.417-1.358-.541c2.421-1.086 4.114-3.508 4.114-6.32 0-3.823-3.122-6.933-6.961-6.933S7.87 5.5 7.87 9.323a6.86 6.86 0 0 0 1.12 3.758l-2.769-.024c-.008 0-.015.005-.024.005a.495.495 0 0 0-.159.032l.004-.001c-.013.005-.026.008-.038.014-.006.002-.013.003-.019.007l-3.234 1.597-1.893.911a.429.429 0 0 0-.064.036l.001-.001a1.78 1.78 0 0 0-.593 2.304l-.005-.01c.22.429.595.745 1.056.89a1.772 1.772 0 0 0 1.388-.133l-.009.005 1.388-.738 2.264-1.169 1.357-.008-5.442 5.415-.002.002-1.339 1.333c-.303.299-.49.714-.49 1.173v.005a1.668 1.668 0 0 0 1.669 1.663 1.67 1.67 0 0 0 1.18-.485l1.314-1.308 1.741-1.3.901.897-3.102 3.088c-.303.299-.49.714-.49 1.173v.005a1.669 1.669 0 0 0 1.67 1.664c.428 0 .855-.162 1.18-.485l3.482-3.466.001-.002 1.01-1-.004-.003c.007-.006.015-.009.022-.015l5.166-5.658 3.471.494a.522.522 0 0 0 .266-.035l-.004.001c.017-.006.033-.015.05-.023.019-.009.039-.015.057-.027l3.213-2.134c.012-.008.018-.02.029-.029.012-.01.029-.014.04-.025l1.272-1.192a1.777 1.777 0 0 0 .209-2.366l.003.005zM2.13 17.77a.714.714 0 0 1-.558.052.717.717 0 0 1-.215-1.258l.002-.001 1.314-.632.316.925.133.388-.993.527zm3.498-1.827-1.548.8-.255-.747-.183-.537 2.026-1-.04 1.483zm15.099-6.621a5.79 5.79 0 0 1-.599 2.559l-4.181-1.899a1.86 1.86 0 0 0-.782-1.384l-.006-.004 1.464-4.86c2.378.755 4.105 2.974 4.105 5.587zm-11.789 0c0-3.235 2.644-5.867 5.894-5.867.253 0 .5.022.745.053l-1.432 4.753c-.019 0-.037-.005-.057-.005h-.001a1.87 1.87 0 0 0-1.871 1.866 1.872 1.872 0 0 0 1.871 1.867h.001c.694 0 1.294-.383 1.618-.944l3.863 1.755a5.891 5.891 0 0 1-4.736 2.39c-3.25 0-5.895-2.633-5.895-5.867zm5.957.8c0 .441-.362.8-.806.8h-.002a.804.804 0 0 1-.804-.8c0-.441.361-.8.806-.8s.806.359.806.8zM2.465 25.146a.609.609 0 0 1-.855 0 .591.591 0 0 1 0-.844l.962-.959.851.848-.958.955zm3.213 3.734a.606.606 0 0 1-.855.001.591.591 0 0 1 0-.844l.963-.959.852.848-.96.955zm3.483-3.469-.002.001-1.765 1.76-.851-.848 1.763-1.756.002-.001c.04-.04.065-.088.09-.135.007-.014.02-.026.026-.04.017-.041.019-.085.025-.129.004-.024.014-.047.014-.073 0-.035-.012-.07-.02-.105-.007-.032-.007-.065-.018-.096a.511.511 0 0 0-.091-.137c-.01-.012-.014-.027-.025-.038h-.001l-.001-.002-1.607-1.6c-.017-.017-.039-.024-.058-.038a.491.491 0 0 0-.084-.056l-.003-.001a.477.477 0 0 0-.09-.032l-.003-.001a.502.502 0 0 0-.101-.02h-.022a.49.49 0 0 0-.077.006h.003a.59.59 0 0 0-.108.021l.004-.001a.502.502 0 0 0-.096.046l.002-.001c-.02.011-.043.015-.061.029l-1.774 1.324-.901-.897 2.399-2.386 4.36 4.289-.927.919zm6.818-7.017c-.015-.002-.03.004-.045.003l-.026-.001a.562.562 0 0 0-.092.008h.003a.447.447 0 0 0-.186.069l.002-.001a.554.554 0 0 0-.083.061c-.013.011-.028.017-.04.029l-4.698 5.146-4.328-4.257 2.833-2.818a.535.535 0 0 0-.378-.911H8.94l-2.219.013.027-1.607 3.104.027a6.928 6.928 0 0 0 4.978 2.101h.003c.438 0 .864-.045 1.279-.122.04.032.079.064.13.085l2.41.96.331 1.643-3.003-.427zm4.041.179-.314-1.558 1.447-1.08.947 1.257-2.08 1.381zm3.754-2.831-.838.785-.931-1.236.831-.637a.73.73 0 0 1 .543-.143.716.716 0 0 1 .395 1.231z"/>
  <path fill="#2e2f42" d="m13.602 18.544-2.143-2.134a.53.53 0 0 0-.752 0l-2.143 2.134a.533.533 0 0 0 0 .756l2.143 2.133a.53.53 0 0 0 .752 0l2.143-2.133a.532.532 0 0 0 0-.756zm-2.519 1.759-1.386-1.381 1.386-1.381 1.387 1.381-1.387 1.381zm6.081-15.232-.258 1.035c.071.018 1.738.452 1.738 2.149h1.067c0-2.017-1.666-2.966-2.546-3.185zm2.547 4.251h-1.067v1.067h1.067V9.322z"/>
</svg>
