<svg xmlns="http://www.w3.org/2000/svg" width="32" height="32">
  <path fill="#4d5ae5" d="M14.925 14.965h1.066v4.797h-1.066v-4.797zm4.265 2.132h1.066v2.665H19.19v-2.665zm-8.529 1.599h1.066v1.066h-1.066v-1.066zm-3.198-.533h1.066v1.599H7.463v-1.599z"/>
  <path fill="#2e2f42" d="M1.599 28.291h25.587a1.6 1.6 0 0 0 1.599-1.599v-2.133a1.6 1.6 0 0 0-1.599-1.599h-.534V9.667l3.028-2.868a1.608 1.608 0 1 0-.742-.753l-.004-.01-2.282 2.163v-1.23a1.6 1.6 0 0 0-1.599-1.599H3.73a1.6 1.6 0 0 0-1.599 1.599V22.961h-.533A1.6 1.6 0 0 0-.001 24.56v2.134a1.6 1.6 0 0 0 1.599 1.599zM30.384 4.837a.533.533 0 0 1 0 1.066.533.533 0 0 1 0-1.066zM3.199 6.969c0-.295.239-.534.533-.534h21.322c.294 0 .533.239.533.534v2.238l-1.066 1.013V8.035a.532.532 0 0 0-.533-.533H4.798a.533.533 0 0 0-.533.533v13.326c0 .295.239.534.533.534h19.19a.534.534 0 0 0 .533-.534v-9.674l1.066-1.01V22.96H3.199V6.969zm4.797 6.93h-.005a1.6 1.6 0 1 0 1.112 2.748l1.853.93a.532.532 0 0 0 .636-.123l3.938-4.431 3.872 2.902a.532.532 0 0 0 .686-.04l3.365-3.188v8.131H5.33V8.568h18.124v2.66L19.682 14.8l-3.905-2.928a.531.531 0 0 0-.717.072v.001l-3.993 4.493-1.493-.746c.011-.064.018-.129.021-.194a1.6 1.6 0 0 0-1.599-1.599zm.533 1.599a.533.533 0 0 1-1.066 0 .533.533 0 0 1 1.066 0zm3.198 8.528h5.331v.533a.533.533 0 0 1-.533.533h-4.264a.533.533 0 0 1-.533-.533v-.533zm-10.661.534c0-.294.239-.533.533-.533h9.062v.533a1.6 1.6 0 0 0 1.599 1.599h4.265a1.6 1.6 0 0 0 1.599-1.599v-.534h9.061c.295 0 .534.238.534.533v2.133a.534.534 0 0 1-.534.533H1.599a.533.533 0 0 1-.533-.533v-2.133z"/>
</svg>
