<svg xmlns="http://www.w3.org/2000/svg" width="32" height="32">
  <path d="M32 6.078c-1.1.494-2.376.858-3.712 1.029l-.068.007a6.56 6.56 0 0 0 2.873-3.58l.013-.046a12.858 12.858 0 0 1-4.076 1.574l-.084.014A6.56 6.56 0 0 0 15.598 9.56c0 .52.044 1.02.152 1.496A18.554 18.554 0 0 1 2.255 4.228l-.027-.034a6.496 6.496 0 0 0-.895 3.311 6.562 6.562 0 0 0 2.888 5.442l.023.015a6.465 6.465 0 0 1-2.997-.823l.033.017v.072a6.592 6.592 0 0 0 5.213 6.438l.043.008a6.408 6.408 0 0 1-1.669.216h-.054.003a5.842 5.842 0 0 1-1.279-.118l.037.006c.873 2.624 3.273 4.496 6.121 4.57h.009a13.098 13.098 0 0 1-8.12 2.798h-.015.001c-.538 0-1.054-.024-1.57-.09C2.826 27.902 6.287 29 10.004 29h.063-.003c12.072 0 18.672-10 18.672-18.668 0-.29-.01-.57-.024-.848a13.186 13.186 0 0 0 3.258-3.359l.03-.047z"/>
</svg>
